<svg xmlns="http://www.w3.org/2000/svg" viewBox="0 0 190.1 32.9"><title>Asset 1</title><g id="Layer_2" data-name="Layer 2"><g id="Layer_1-2" data-name="Layer 1"><path d="M190,.1a3.8,3.8,0,0,1,0,1.5c0,7.8,0,15.6-.1,23.4v6.9c0,.4-.2.5-.5.5h-8.2c-.4,0-.5-.1-.5-.5,0-7.2,0-14.4.1-21.7,0-.6,0-.6-.6-.5a24.1,24.1,0,0,0-8,4,50.5,50.5,0,0,0-5,4.2c-.2.2-.4.3-.6,0a53.9,53.9,0,0,1-5.9-5.8c-.2-.2-.2-.3,0-.6a52.9,52.9,0,0,1,10.7-8.1A28.3,28.3,0,0,1,181.6.2a5.5,5.5,0,0,0,1.8-.2H190Z" style="fill:#3d6c9c"/><path d="M109.5,17.7h3.8a3,3,0,0,1,3,1.9,2.8,2.8,0,0,1-1.1,3.4h-.1a5.2,5.2,0,0,1-2.1.4H83.4a2.9,2.9,0,0,1-3.1-2.7,3.2,3.2,0,0,1,.4-1.6,2.8,2.8,0,0,1,2.7-1.5h26.1Z" style="fill:#b10838"/><path d="M.1.2H8.8a26.5,26.5,0,0,1,7.8,2.1A43.1,43.1,0,0,1,27.9,9.8a78.1,78.1,0,0,1,5.9,5.6c1.4,1.5,2.9,2.9,4.4,4.3a10.3,10.3,0,0,0,4.4,2.6c.3.1.4,0,.4-.3V1.8a.6.6,0,0,1,.6-.6h8.2c.6,0,.6.1.6.8V22c0,.6,0,.6.5.3A21.2,21.2,0,0,0,59.3,18l5.3-5.2a70.7,70.7,0,0,1,8.9-7.5A26.7,26.7,0,0,1,85.9.2L88.7,0c3.4-.3,11.5.9,14.5,2.2A39.7,39.7,0,0,1,113.6,9c3,2.6,5.8,5.4,8.6,8.2a21.2,21.2,0,0,0,4.4,3.5l1.1.6c.3.1.4.1.4-.2s0-2-.1-3V.9c0-.3-.1-.5.2-.7h6.5a1.8,1.8,0,0,0,1,.2A26.7,26.7,0,0,1,147,3.9a54.1,54.1,0,0,1,9.5,7c2.4,2.2,4.7,4.5,7,6.8a19.3,19.3,0,0,0,11.9,5.6l3.5.2c.4,0,.4.1.4.5,0,2.8-.1,5.6-.1,8.3,0,.2,0,.4-.3.4a32.1,32.1,0,0,1-17.1-4.6,34.8,34.8,0,0,1-5.8-5c-2.6-2.6-5.2-5.2-8.1-7.6a27.8,27.8,0,0,0-8.4-5.1l-1.6-.5c-.4-.1-.5,0-.5.3v10c0,3.3,0,8.1.1,12.1,0,.5-.1.6-.6.5-3.3-.4-6.6-.6-9.7-1.6A27.5,27.5,0,0,1,117,25l-1.9-1.8c0-.2.2-.3.3-.4a2.8,2.8,0,0,0,.7-3.1,2.6,2.6,0,0,0-2.7-1.7h-3.3c-.2-.1-.4,0-.6-.3-3.2-2.9-6.5-5.7-10.6-7.3A15.1,15.1,0,0,0,93,9.3a41.7,41.7,0,0,0-5,.1A19,19,0,0,0,80.3,12a40.6,40.6,0,0,0-7.4,5.7l-6.8,6.7a31.2,31.2,0,0,1-11.9,7.3,19.2,19.2,0,0,1-9.8.5A28.8,28.8,0,0,1,36.8,30a20.4,20.4,0,0,1-5.6-4c-3-3-5.9-6.1-9.1-8.9a35.2,35.2,0,0,0-9.4-6.3l-3-1c-.4-.1-.5,0-.5.4V31c0,.4-.1.5-.5.5H.5c-.3,0-.5-.1-.5-.4" style="fill:#3d6c9c"/></g></g></svg>